<?xml version="1.0" encoding="UTF-8" standalone="no"?><!DOCTYPE svg PUBLIC "-//W3C//DTD SVG 1.1//EN" "http://www.w3.org/Graphics/SVG/1.1/DTD/svg11.dtd"><svg width="100%" height="100%" viewBox="0 0 716 1042" version="1.1" xmlns="http://www.w3.org/2000/svg" xmlns:xlink="http://www.w3.org/1999/xlink" xml:space="preserve" xmlns:serif="http://www.serif.com/" style="fill-rule:evenodd;clip-rule:evenodd;"><rect id="Artboard1" x="0" y="0" width="715.777" height="1041.67" style="fill:none;"/><clipPath id="_clip1"><rect id="Artboard11" serif:id="Artboard1" x="0" y="0" width="715.777" height="1041.67"/></clipPath><g clip-path="url(#_clip1)"><g><path d="M692.207,70.571l0,902.342c0,31.332 -25.437,56.769 -56.769,56.769l-563.087,0c-31.332,0 -56.769,-25.437 -56.769,-56.769l-0,-902.342c-0,-31.332 25.437,-56.769 56.769,-56.769l563.087,-0c31.332,-0 56.769,25.437 56.769,56.769Z" style="fill:#fff;stroke:#000;stroke-width:16.89px;"/><g transform="matrix(1,0,0,0.864005,-2.27374e-13,-2383.12)"><g transform="matrix(363.971,0,0,363.971,256.057,3105.06)"></g><text x="55.411px" y="3105.06px" style="font-family:'Impact';font-stretch:condensed;font-size:363.971px;">G</text></g><path d="M353.895,259.162c-0,0 52.516,87.527 113.784,148.795c61.269,61.269 148.795,113.785 148.795,113.785c0,-0 -87.526,52.516 -148.795,113.784c-61.268,61.269 -113.784,148.796 -113.784,148.796c-0,-0 -52.516,-87.527 -113.785,-148.796c-61.268,-61.268 -148.795,-113.784 -148.795,-113.784c-0,-0 87.527,-52.516 148.795,-113.785c61.269,-61.268 113.785,-148.795 113.785,-148.795" style="fill-rule:nonzero;"/></g></g></svg>